<svg xmlns="http://www.w3.org/2000/svg" xmlns:xlink="http://www.w3.org/1999/xlink" width="1440" zoomAndPan="magnify" viewBox="0 0 1080 225" height="300" preserveAspectRatio="xMidYMid meet" version="1.0"><defs><g/></defs><path fill="#0078aa" d="M 967.46875 0 C 1029.609375 0 1079.984375 50.367188 1079.984375 112.5 C 1079.984375 174.632812 1029.609375 225 967.46875 225 L 112.53125 225 C 50.390625 225 0.015625 174.632812 0.015625 112.5 C 0.015625 50.367188 50.390625 0 112.53125 0 L 967.46875 0 " fill-opacity="1" fill-rule="nonzero"/><g fill="#000000" fill-opacity="1"><g transform="translate(538.66404, 114.750005)"><g><path d="M 2.46875 -0.84375 C 2.46875 -0.550781 2.363281 -0.328125 2.15625 -0.171875 C 1.957031 -0.0234375 1.671875 0.046875 1.296875 0.046875 C 1.085938 0.046875 0.90625 0.0351562 0.75 0.015625 C 0.601562 -0.00390625 0.453125 -0.046875 0.296875 -0.109375 L 0.296875 -0.875 C 0.441406 -0.800781 0.601562 -0.742188 0.78125 -0.703125 C 0.957031 -0.660156 1.113281 -0.640625 1.25 -0.640625 C 1.457031 -0.640625 1.5625 -0.6875 1.5625 -0.78125 C 1.5625 -0.832031 1.53125 -0.875 1.46875 -0.90625 C 1.414062 -0.945312 1.25 -1.023438 0.96875 -1.140625 C 0.71875 -1.242188 0.539062 -1.359375 0.4375 -1.484375 C 0.34375 -1.617188 0.296875 -1.789062 0.296875 -2 C 0.296875 -2.257812 0.394531 -2.457031 0.59375 -2.59375 C 0.789062 -2.738281 1.070312 -2.8125 1.4375 -2.8125 C 1.613281 -2.8125 1.78125 -2.789062 1.9375 -2.75 C 2.101562 -2.71875 2.269531 -2.660156 2.4375 -2.578125 L 2.1875 -1.96875 C 2.0625 -2.019531 1.925781 -2.066406 1.78125 -2.109375 C 1.632812 -2.148438 1.519531 -2.171875 1.4375 -2.171875 C 1.28125 -2.171875 1.203125 -2.132812 1.203125 -2.0625 C 1.203125 -2.007812 1.226562 -1.96875 1.28125 -1.9375 C 1.332031 -1.90625 1.488281 -1.835938 1.75 -1.734375 C 1.945312 -1.648438 2.09375 -1.566406 2.1875 -1.484375 C 2.28125 -1.410156 2.347656 -1.320312 2.390625 -1.21875 C 2.441406 -1.125 2.46875 -1 2.46875 -0.84375 Z M 2.46875 -0.84375 "/></g></g></g></svg>